<mxfile host="app.diagrams.net" modified="2023-12-05T21:45:57.317Z" agent="Mozilla/5.0 (Windows NT 10.0; Win64; x64) AppleWebKit/537.36 (KHTML, like Gecko) Chrome/119.0.0.0 Safari/537.36" etag="i_ROdfe2lhVOOhELmOQ0" version="22.1.5" type="device">
  <diagram name="Page-1" id="KO1bPNgyhg2QHxR926Aa">
    <mxGraphModel dx="1050" dy="541" grid="1" gridSize="10" guides="1" tooltips="1" connect="1" arrows="1" fold="1" page="1" pageScale="1" pageWidth="827" pageHeight="1169" math="0" shadow="0">
      <root>
        <mxCell id="0" />
        <mxCell id="1" parent="0" />
        <mxCell id="G1dxcjwJxrKEeyY8NWex-1" value="" style="shape=image;verticalLabelPosition=bottom;labelBackgroundColor=default;verticalAlign=top;aspect=fixed;imageAspect=0;image=data:image/png,iVBORw0KGgoAAAANSUhEUgAAAP4AAAJzCAYAAAAvJ65+AAAAAXNSR0IArs4c6QAAAARnQU1BAACxjwv8YQUAAAAJcEhZcwAAEnQAABJ0Ad5mH3gAADlKSURBVHhe7Z35jiVH8bbHu2fzeGY84w1jjFgEAgRis1n+4l64Ca6La+B3BQiMBAgkZMA23gCvfN+8pyvc0dm5V1ZVZsb7SKXasrLqRMQbudQ53Q/9vwdcIYSY4uFlTQgxBIVPiEEofEIMQuETYhAKnxCDUPiEGITCJ8QgFD4hBqHwCTEIhU+IQSh8QgxC4RNiEP5Ip3PeeuutZevKlTfffHPZusw777xz5bPPPlv28rl79+6ydcYjjzxy5fbt28veOW45MjYU/kFA0FrIWuB6W7tnD1c99NBDy9ZF5LhOALL9zDPPnNaACWIMKPyNgHh9rbUcc82+t8Br0YnBlyRwTMT/8MMPn7bv3Llz2mdS6AcKvwFa5BA4tkPCtmDuUHLQSQG9BGwzGRwDhV/I66+/flqLwIE2IbZp0jCSCPTaTQY4Jr0Esg0UfgIROkQOsYu5ehL41atXl606/vvf/y5bx6CTgGzLvMHXvvY19go2gMJ3EKH//ve/P633FvqTTz55Wj/xxBOnNYRw7dq10zaQ8xoRC9DbKfRnEz788MNl6xwkBpSRc74yrZHPgXkCwETQFgr/AVrsYo7//e9/p3VrIGgsEtjSWvsEDVAOr9hyqRF+CpSDPVyb6ETw0UcfnbbBFonBlwiQBAATQTkmhS+TcbJIQLcWOwT++OOPf74trTiCV8ScEirOS7DnsIXwgU/4glsPvk8gw4cPPvjgtNaJoQXaLkwC5ZgSPlr23/72tyfR4WPL0oLHHnvsQjddRC5oQWL70UcfXfbi9CJ8iDm3/Keffvp5WX2NiL91MmASKGd64Us3HutYq1WDjL1lDTEjqeSID4kil6O7+qBE+J988smy5UfqgS/+85//fN47SF2Xgy8JMAFcZlrhQ+gidtBC8BArxI3uuxauiA0CzW3JUS5XpD0IH614DqgztyyEDr/Ic2AfC65vmQSYAC4znfC14FuIXcboTz311GkNYuJyu/ghEJC5gj5a+CiX+zsAlM0Vvq+rL88kwkdvYG0SkASANcTPJDCR8LcQPFp1ERIELV3IGLgmp1yO8OXeErQad7+GlOvlPNa5wtfj+xjwUY6gcV8kCJTFNbnPEQJ2gz3RC3jttdeWo/YYXvgtBS+tuxa8gK657t6HyO3uI/jcciExS7C2Jtf1KKdt616n93OFL0JOAdHrchA+rm2RAOArtP4yGWiJYYXfUvAIAMzIh4Qn5HxDDgL1JQhdt2znJBJwtPBh39yyH3/88bIVrz9H+DgfmvlvlQBgVyzWEsCQwofgf/e7360WPAQlItTfjguR0+qjPhnnS90hEHA54/dRhI8yvvG9XCtr1AfRpnBbex9INDl1pYB97927Z2b8P5TwIfg//OEPpyy/RvRa8AIEnRJ1SPhSl4gTYs4RdK7wQW65EnJdn9uqlnbzpWzomhzh//vf/1621gM/ws4WWv9hhP9///d/V/7xj3+sEjzwiV7IafXR3ZfrQ3XhWG43PrfcUcJHmVyb57a8KKfvjW3ZlzXuGermC0hIW3w9GAn5/v37V1599dXlyHwMIXyI/u9///uFYCkFwQZBygSej1irLyLH9TmTd7H7aHKFj2D0JZlacm2JcjnCR7mc13ioK1ZOnguCTvU0csrUAlvDzxD/jF3/9gPHhuB79L/+9a+biD4nKH0tFgSHAMCCVjc30FqXW/P515B731afF4LDPbGGvUPJDvXE6sK5Nb0BPAPi4Te/+c0pDmejW+HD2DC62y0sBd1FET3q0rPOPlAGwQbBozX2BV9OEskVgiXQ2uf4Uuwr4pekq/3gS9IanF8rfoBnmVH8XQpfRJ8jsBAIMjg9p5sqILiABFqIXFHnlCt5vl6BmHMEnVMG9vDZRJIAFpyP2Rbn5DzWa4cEM4q/S+Fj9n6N6JHt8QswX6CFWn0JKgRYqjUBa57PJUcQR9Hy2XKSXMqu8A+eCclZ9wA0rv8gevT8Woh/FroTPl7XYfZ+DfjFV2xGWAcGxI6JOKyFHFHnBFFuoOUI4ojkkHvPnM+Jz5iqD2VStpAyeiimQVL3PQ/ujf89sAbEBeJzBroSPrpS+GLOmiCH6KVFj43nETyu4DWtWv01rcwo5Pgrxw459nQTOvynW/+Q33B/1L/2vT/icwbxdyV8dPHXCAVOh/CFkPARLKmWBUGSKpPzrKk6QE4ZsCYh1pBzv5wy+HypciiTskNI1NL6x66XSb61wofPIf7R6Ub4aO3XdvHff//9SwHmil9aCJBq1Vu0UnieHGG3Etne5Ngo57lTdoQNY2XwHCjj+14EYkCeAesW4h+91e9G+Gjt1wb2e++9t2ydA6eL+BEUInoA4cfEj0BLJYcccj5XTnJwQb21Sw655VKkPhvOp8qk/CDnpfUXIFI3+UP4a1/z5SS8nulG+Gtbe4z9EKiukwGOYzyPoHBJBVSqJUIA5JRJ4RMZjulFBCKLe16WHHzXhZYQqfNAnjNGyn7wEeoJ4Z4X8WPtiwf5c+FrYIvfAHTz1zpCrvc5OvWKLiX+1PkcUuLH87vLkej7u8+llxSpzy1JLEaqi+/zD0SPxb0/9lFfixZ/5Pf6XQg/J4BS6Fc1Wvzo2iMAEBy+pABwLibuFq1+DikBgBa2yiHnPqnnxflUPSm7hXwmhM7DJ+gF6qEdkPIt7LiXL7agm67+WvSPYuBcLBC8O6Z3WwAhJnyQOh8DPY6eRN0CPGvqeVPnYZOYXXAu5C8gwzsf8BfOaf8jJmL1WaIL4b/99tvLVj1wtM7+2HazPYgJOHYOLVPsvNvqQ+yyCKmgSwmlFTn3yRFtCpTRdtC2AKnWPuWrkD2REPQ5xAH2dXyE/nORFboQ/rvvvrts1YO/nqIdi9beF1huAGgQTCnxxwgFuJArlhh7JIcW9wiJUuyDe8Q+K/wQOo+6Q36Cb10/Qfj6GMqs/Uejo9OF8G/fvr1s1QOh4w9paFEjOHwiDx0HOBcKWuALOAlmXJdKDrG6wR7CXgueMfacKVED2AE+CyXJmB1Dog8lBPhanhdlMCwM3bcE+Y9AI9KF8BEAf/vb35a9eq5fv35yMhbUCUIijwk8FFhAAlLE7gZQStgtWvScMmtI1Z8j6hiwodQB+7kJIJSUAXzjuz/u6X6dF6Au7U/so3e4ltCPwEahC+GDVDDlgD+XhL+XDkfr7+Bj3ydmX6AAPIuvPIIT9eYEdoy1yWFrUgEdO49zsfP4bL7PLwkAhK7HdT6/ABx3r3P9jm2M7W/evLkcqeeNN9648sUvfnHZG49uhI+/sqO/Z18DAufZZ589BYD7nhaZ3g04lIsFkpRHUOrAxPGYuFPnU8I+Uvgx0YLUedfGLrHzknBhZyRY3QsAOb4SsO/2HLD/yiuvXKq3FLT2+JaoblxGowvhv/zyyyentxgzIWhQn9vFAzldQQ2Oi+BF9EJK3GsEAGICWyvONcSSEu4bu7fu4vvQNoHdISyxO3zhuxbHXYGjHtfXaFQQFy3E2uILZ0fThfDFGf/85z9Py1rQlbt169YlUcNZJeJH0KUCNXZ+Tat/VGDF7otzsfOxZIbPGzsfErb4wGdL1OeKHqAu/Zzw+UsvvXTh/x/WAtGPPKkndCF8AQ5e+519gNYCXX6f+BFAPpHrAML1+K431igfE3AsmFOJISWUGEckhq2SAuwb+rzwFa7FKzn4Q+NL4jim74V9NASY+HWvLwXf8X/zzTdP9Y88vgfdCF8cj3WLGX60FHfu3Lny3HPPnXoUWuyhFh5BguBwv/gTEz+etzYxtBS3CE8W1B1apIyP0HEQO1crbBwPXYtz2rZa/PCV+zzwqS6PfYgecbBW9ACil88x8vgedCN8jL8E/GwSs6Zrgfjxbh/ix1oHmE/8sSBEQIUEjmtC59zgdYkJRgIba5STBfXh2fUiz1ey+K5H/Xhm3FMLy93XxM7FbIpzuLcPnPN14+XLOFg0qEeXv3HjxpUvfOELJ9HLPMEaEI9rf8ffE90IX2dQBBEmY1qIH5kejseXhPAqRwehK348QyjggC/gBBGMj1DgA/ca7GPBNVqUchxLTGi1oD7cE2u5Pxb5zHiO0L1jn6/mHO4DH/g+o9hDg2Ou6NHSw59rRY+eBYafLX7K2xPdCN8FRhbxh4RYgoj/6aefPo3fBdSNAMR5CRLs14gfARgidA2CXOrEgn0tMGwfjTyLPA8W2Ei2Q88on8eHJBIXHEuJHq2+NBTaVxA8encQfYuuPUSP18yu6HFPTBaOTDfCx2SJBIKsYWyIHz/iafWqD11+NwEgoNwxW0r8oYDGOR+oD+dc8WBfjvsIHQexc6XU3AfH9WfCWsrK5/MRsh+OpUQvwJeoH+KE4KWVx/EWosefcYPo5XO5uPEyGl129TUSVHBEi1/xSdcf/8paJwAEnBuMMfGHWiwRuAs+hwQ8tt1g8gWX4LvPXvieVZDPIkhZHPfZAOBcKCHApr57wQe++vCde3xbE4Jv1coDjOXxBR1t99Azj0q3XX0XBIR0vUJiLEEnALzfxa+14FwEn0bE74oPz5MjfhGDEBOEr64YPpHUEqordjz0vPj8OIcy+nocc+0r+GwMcNwVHbr68Bde0aHBgC9biB6Cx/dIsA597lkYQvgSEHAGggAtP3oAIRGVIAkArT6GAVj0ayOQEr8PCX4XXOM7DkLHcU0oEEPHWxGqP/Ss+NyuUOX53eOCT9zAPQ6/IFGLf1qIXYDYseBz4VlDnw/gHN/jNyQUGC4wPIIC4/61fztNI8GERIDgkgXHEAy54pd6kJhw3gWfMxRYoeO+eloRqjv2jKHPFfJhyBY+0aN++BXlRexa8C3BxF1OK+/agmP8Ruj3+LkJAI5CgOAPebRMAEASgE4CwNe9x/MisEXwmlDAow63HhA6HgvKtYTq9h3HsdBz+/yG8toG2kY+0WMfC8bv6IWJ2F27rgXDRvQascazh2wwK91P7oWQgJFA3CoBAASdJAA8J+4twYIF57FGgPtEgeNugMtz+8r7jgHfcdSzBSXPgGP4jC5iE98zig0FlMEidt5C7MC64IUhxviuaHzAgXAkWhF03+DYnOtKkGBEcMr9sOA+CHAs6BH47ivlXELBh+MuoSBdE7wldYaeNSZ6FxxDcsYaZWTZmlaCFx9yjN+QFkKVQEJdSAJbJAAX3A/BJMJHYGPBffW9Ucb3LD6R41joeAq5r9ShFxefAELlfMd94sa95Ti2YRP4Ad/JkO49Ft+9WyL+kIYAz597T99n1XCM3widQVNGj6GvhZMRYFv2Anzgvgg6SQAyY4xtBD+eBedFHCFR+Y7h+eVaLPLZ9IJjvgWfX5fDvpxDXbgfFp84fM8i12CNumRB3ficWLAP8aEM6vXV3RLcR54Ha0kwa+/r+/wj043wZfJsC8TxIppYgLdE7iuLDkq8kUDXE/8IBNv4wgjmKCAWCEUWJAu5TgSqz+vALl1wrSyoS5KDFivshH2cEzFjwbPi2fHcktRkwXXuvbYG9xSxy/1zmE3QuTz0wEDbeyWTX/3qV5//vXO8TxeQFPT364HvmIBXPyHQRXOTjIzdt5hMKkHuH3sOnx1CuPWEXA2hCCij91GHXOdef2To6HtDvEhUIWLnJVG4oNeikX0kSXxb8Je//OVpf1S6GuOHsq/veG2m9gUrjqE+OBVr7B+RBHBfeZbQIl1zWXQr7C4yxJDFVwaLW6e+n9gEizyfLHuz173xWUPg3Ja9073oSvh6nI+AOwIEFUSPmXv0DrDG/hGJwIcO/i2WXhAfYH30s8USwah0JfxWmbSloyQAdSKQgMSarMe1MeJAbJ1Dyt+pFtwijNxCEKQSqAhQfMMMax2suQFrEbEbbOWKHAts2zNH9URb012E+jJw7rEjQKDqIJZFJwQEtJSxgIhbFkxIyvft5Wu4sEXvIg+BP+k1Ol0JX/9Vk62E3bJe37hTegRuQpDAl18Ayj4WEYIsvaKfUUStPxveyGAt4pYF5bVdQE/zCS6pVh2faXS6En4vBm2ddHTQy6KFgd6BiAcLfmeuF/z23F0gLiy4NrZoscoi1/oW9z4Qsy9Z6XvI59CfrxU9JIhZuveaKQejvQwDctGCkUXGvG63WRYtQC1IdxHRygIx+8rJ4t4HicL3fHrpnVjyqImV0f/eHuhO+KHsOpqYt8YnwBbLiOzZK0AcIiGOTlfCL/3FE5MB2QI3rmaMs27H+DOOqwjphSnH+CnYUyCgNg44xt+RPXsAPb9qIuW0SvQSgxzjNwZj/BKBh8r2KFwmkzpot23odow/QnecQVlPS9u1jhW3vhFisRSTY3xCaplhfA+6E/4e2XXGDE62B3Ezw/gedCf8UEYtESuFTYRYLFiOk+6Ej++LC6mJPgqctMaNqVljjGP8AEwqZGYofNItOTP/eyZo9EBffPHFZW9suhM+/siBz5lsgUlramJKD0VHpusxfsoxRycDvscnozJtVz+WFI4QLJPEOXvaorRxcCeU3f0Z/uwW6FL4qdl8Qo4ASYRd/clhC01mpjvhx74SefSYnvTHmpjIuXbWmOt6ci+nyx9yDJMEqcFK3Jjs6jMpbEPr4VELP7V6JmmEOLm3Eejqc3KP9Aon9zYi9h6/x4TASUAyIia7+oTkDiN0uVm6+WB44XNYYJs95xVm6eaDLoXf4ocQawOixcQS8TPi8Gi2eOhS+HtkVgq7f1okCPrZT/ddfd2VH9mJI7ZyIz5zS2ZOGpzcIybxiTomdDRAs/wWH3Qp/NBv8n3MnJVJX3Byb2Ni7/Jz2SshWO8OHw0Tfx1DdfVbOjlV15GCZjJpQ+ukwPf4hAxOTlJwvyPCrv4O5Gbr1lmd1FHSS+m1RxP7Mthscdbt5B67u4QxsB1dCv/xxx9fti5n2pLMy94AWcPM8dP9GJ9Zn4RICbO1cPkef2NK3uMTUoMvvkIxJ8d1T3R0uu3ql7T0NUkip/6WyYc9l3GZ0Xfdd/Vd8bUUYwsoaDIi3QvfZeueACGCjp+ZxvegW+FTtLZp0ZNq1RtDLM40vgfdCr/k65FMEqSEULxYiqNuhR97l+9Sk9mZLI6jZUtM6hhijK8DZU9ntwpQMh46zrD9wgsvLHtz0K3wMZnCjE56AA0Ax/g70cLQbLH3Y3RbW2tkhujq9+wUJpd+CcVNTTzxdd7B+JxmLVuTM/ZMuuzq78jWgmbC6JejfaPvP2OcdCv8Fr/J781hHBaMw+y+mnpyj/RHD4LyNQgztuoxppjc28pp1oJhJkp95yYk93pO7u2ENnTKKYRshcQaJ/d24oknnqDASZQ94mPWsX7XXf2tjc7E0i97C85aLEwxxo/BVoG4lMbEbON70LXwQw7yHd9D4MQOOp5mfMPUtfBDmXavFpYt+bi0aghmbVC6Fj4m+Agh7RlijA9qMy+HAHPS2q+x+p5//vllax66Fr7+4wepbndNIOzdlefQ4Xgb5MSJLoPtGXue3Xf1fY7yHaOoiKZVPMwaV8N09YktmMi3Zfox/h4wSMcmFVuz/b090L3wjxZ8zwmH7APH+DuD9/i+1tQnxpBAY61xz6JmL2Ibcnyuy/QcI2vofnKPEB9bCtJC0uXkHpmSlomBY/wDmbXLZY0eW1M3tmRf1hzj7wzG+GJ8N2CYCLbnKJFueV9f3ITu12OSakX3Y/xc44cSwdoEMbPzW0I7jYX5MT57DmPSMtHEYmDG8T3gGL8BuUHIVnEfWsbKrG+Wuhd+6JdRbKnJVkhszRxj3Qs/lHHZehJSz1Rj/FCGZu+ACIyFM7oXvp5codNssLefYw3GjH+EAwzR1RfHbNG9ZzIhGh0PiDdO7nXGXoJlYmhLq+Qd8wt9lsbEGJ8QUBMf7Op3QMpxodZk64TANwzz8uSTTy5bczHE5B5bcrIVsdiaOe66Fz4yrq9FHdEps/YMevtca57HSiMz1Ri/BnbT+yPlky3F6d6bY/wB2CIgmBjmoSY+OMY/CD3Gt9INI8dhJdaGGuPXtr5stUmIkMBnj5mhu/rsAYxFj2KKPdOs43swlPBTQq9JBK2SB3sV/dDKp7OO78EQwn/uueeWLULq8SWEUJJolTx6ZQjhr828sztxNlK9py39aSVWOMbPgImDzMbQwue4mmzJzEPMIYSP2VVpdVOtL1tn27TyP+rh5N7BaAds0crvmSzYSzkOn5/1Mb09u5+G7uoTm+wlSr7H74hQhk5RUrYGyy157mcfzUbs6h+MHuOn2ELglkW9N73YenafDyH8q1evTtuqkH3wxUUsVih8QgYiJNgc4W89HOyJoYVfkpVjZUvqIX2zxpfutXyPfzB6dlVn5ZmF3+MzWUFiDEPMWRlmjC/OoCDIVjEg9VqIsWG6+rnOYGKYn1Y+dsf0ut7ZfxE6/OSeGwQUvm1C/vcdj8XKzN18MIzwJQMfIfSce+Q+xxbPu4cNWtDSjqWMYqO9GEb48i2qWgfGrkvVyaDZjx5sbcHfw3f1XSjSuWnpX7cu2afwByA2QUPmo9a/vuvcY3r/2WefXbbmZLgxPqh9l0/mJxQPJXGC+OLkXifo7+tT7CREi9iwEF9DdfXXOCR2bapeC4HQC0fZ2r0v3+MPiC94YgFFYdtE+92NAXb1O8L3tV2faI8Q8hH33BILn2e2z1jCMMLHD3XEUdphlp03Gi18Fauj9pyLhZgaanKPkFbijkHhD4r7bl+w4FCShxsLbsxwcq8TQo7wiTkk8Jjw90oKe92HxHH94O5zcq8Trl279nlW1tm5lZBS9VCw41Liu1BvcTaG6uqLA48QIYW/Dyk71/gh5xopY8XPU47xiU3WiFZfO/v4Hgwl/LUOsZLN96YXu5Y8R6xLb+EN0lDCF4e4Dk7tC1sH6Nb1k3YcFSO9MMUYP7WfgxWHH8WR9i25t5U44Bh/IeVwJoZxyfGdLjP7b/HBUMK34BBST0lydsvqfY7xOwPv8sVBenLGnagpCQDSDzl+a+XbUD18j98p4jDtONeJIaeGju9JD88wMjX2K7kGZdnVJ2QCUsJ3z6NnOTsU/kJNS0LmwKLvhxI+vsAjY7AencXkcSwl9g+VteLDYSf3tIN8zso9RuahxL+hslZiZIqufq7I1zjVSkD0TK0PSq/j5F5nHPnjCQrfT65dWthvK+G7r/A4udcZ+jf5ZD72Sq7ufWTfUmwN19X3OckXMKVO3CvoSJi9fBC6j6UYGHaMr53kc1ipE3t0uqVAXMsaW+lrrXwtfIrJvRIopjkJ+TXH37qMhfE9GE749+/fX7bqqBU+E8bx1PiAfvMznPAlI7sO7cHBuc/AYKyjld1C8z+W/DLFGB+k9kn/7OWz0H1wfG2PchSGE37u5EvMuSH2CjyLbG3bNfXraznG7xQ4ppWTXbYOTrIdId/l+FTK8D1+5/gcZclpVqlJzL5rQvXU1D8qw47xgXaU6zRLTiRlxGKD7/EHZwvhM5nMh+tTjvE7BRl5q259StgU/mV6sUnoOehTP8MJ//r16587q8ZpsWvWBoHVIOqZEp9Y8t+0Y3wyHnv5MHQfHOd7/E4JTb74nMlkQHzE4gI9SgsM2dXPpVfhMyHVsYXdrL4GHrKrf5SzKNh6Wtiupo7UNXLeWgIYUvg+Z+UGRaxcbh2kP0K+c4/HylkZ3wNzk3u55chY1Ppf71sZ34MhhX/v3r1lK47V8RvJx2pDMKTwJTOnnHaEU60G0lqOtps1v03T1SdzU+PrkmtQNrcnOQNDCj80CZPraCaMNL3ZKPY8oXO+47HhH8f4nRNyUG6wlgQK6Z8Sv7llZZ+v8wYhx9mlQk6VL62PnNGz3eTZrPl2eOHHMnVrZ1oLDmvwPf5AaDHy9R3R+BJ1LHlzjN85yMw+kee2yEe33Efff0RqbOa7Rh+z7IchhX/jxo3PnRZzXujclg63HExrSNmtxs8p9HXW/DZVV9+lxpnWAqAX1ti9hc9QB8f4hokFEZPCWJT6i2P8zln7BR5iA188MEbOGHaMv2Zyj8xFid91WYkhi2+Dhu3qiwNTTvMFBRPEeGzhM6kTa0vjezD15B4oDZgtAsw6OTY92u6WxvdgWOH7MnSL4KHw58X1rWVfDyt8X4amaIkmJXQKf0DEaSnntZ4ETF2bU3fu/dc85170/Iwz2bk1wwpf/mhCymm+82scbTFIemetT3C9pT/CAYYVPl7p+aAw5yTm1xY+5+TeQPgcvjYImDj6pNQvvvLusE/K8D3+YFCkJIQvNtxjso81u/oDYjFjj0ROgs4psyWhoeOsDCt8/Zt8HTSh7pxLbaAdHaDkIvRHHUNP7vmc7h4LBQYDZg5K/KjLhratMEVXvyfHWQyiramxqe8afSy0bQUK38FiEPROjU9Kr+Hk3iDk/poqFAClx8nccHJvEHJ/k0+BEx8SO1bfCA3d1feJdxRBz5B4Wn2GNfWErvUd18dkG2tr3XwwxRjfatYm9cLXWOvmg6GFn/tDnZbseS9yBm3enqGF78vUJZk+RKw8g7CctTbbwubW/WhijJ97TLAeFCOR6yu3nOxb9fUUY/zenGc1mHom5BMcf+aZZ5Y9O3CMT6akJCY4uTcYcFiOgznr3zdbJO7cOvkef1B8DnaPlQZWrHxpXSRNyqZb2FzqxJpd/YHRmTsnUGJltgg0cixuy659fPPmzWXLDlOM8UGpWCnuOfD5MfeYZYYWPjL1qGM0BmIbKPI6phzjx7p1ZF96sb1+jtC2JaYZ48ecubdzrQTTSJ8zFB/Y5uTeYKwZ44ORAndmUn7Y2k+c3BuMtQ4LBdTRgUguUusnEmb4rv4Rk3sMuD6oTQgSM1hb7OaDKSf33GMUahmj2ysVE7KNtcVuPhhe+DLO1y2/63hfIBBbMAYuMrzw5QcWNY5lMBCrTNnVzyV0LRNCP2yR0OW8ZT8PL3wfPoeWONlyQLQmx5axMjXnUveU81jfvXv3tG2N4YUvs7La2T7Hp4KhhFRdLe9FwuTaOVaOk3uDIo4bTWwtgpbkQRteZoquPh1LauB7/MHxCT8nGTBhjE3Ifym/ynms2dWfgNi7fH0uh1TwkH7JFb5lppjcE1HHHFrqbAZHH7TwQ2nSt8Dwwn/qqaco0oFJ+a6Fb0N1WI6bqbr6mpwsX+t4ywEzOtp32Obk3qBox7lOTVEr4NR1tfXOyN628N1PH3PPc3JvUNDVF2JBVhqApeXJ/vh8lHvMOlN09bfo1jNY+iDmhzU+sj7hN4XwRxQpE8sx6DdAVr+nD6YQvm+CJldYFKAttL/1MNEaUwhfHKi7b66gQwKvET6TRb/4fEN/XWaqrn7MwXR+n9T6JXSd7zh9fxmO8cmhtBZ+CrkOa47xB0ccqIOhNjCEo68fgT0+Y+t7SH1YW32HD6Ya4+sgyQ2Y1oFFLrLWvqXXu+XpXz9TCB/kONhXhoExF7nC53v8SagVPrEJYoFjfFIMk0gbau3Y4jq+xx8c/Zv82Lv8ElLXrqmbrKeF8C0zzeSeOFQ71nVyybiOAXI8NT5Y43NLmOrq+wLpSIEzucRpIfxQHTjOMf7gaAf2IqZenoOco32CbY7xB+fWrVvL1kXnsps3LzWJlcn4nGm6+j6R09HH0oP9GQN+phH+Fg6O1cmA6g+fT3zH0EhYHt8DTu5R3IfS0sapuqRXiHKWx/dgGuFLBo+N632BQXHXsYfdWt+Dvj5nGuGv+aEO6ZOY/+jbdUw9xmdwzEuub0NxcefOnWXPJtMIP8eRpYmAiWMsQiIXZBtrjvEnQd7lx8QaOld6PIc115I6UjanT86ZRvgAjtXOzXV0TUC0CKIWdcwM7bMd0wlfs2XgMCjXU2vD3OtC5fDmh2N8QjZiq+QYqtc9Hiunv+ZtkWmEn/tNrK2CcStGe94jSdmKtjxnqsk9+fKO/hKP62yf8xkQF5nVHvTzOVOO8bWDc5wdKsNAmRP4lWP8Sdj7RxdMCv0T+vo2fMcx/iSEfpPvEvsuf0uYGNYTsmHucb1Pf1xkqq6+oJ3sCp0B0IY97Bi6R+lxQL9fZCrh+1rzHIczKI7hCLsjRqyP78GUk3utYEJYR8p+W9vXVz+OWR/fg6mE3zqTU/hjo/2319zOKEwlfMnkMSf3JGYmljAx2/jOpWxJW19kyq6+drLr8JYBwGDajlLb0hdlTN/VzwmI2qBhsI0HfHb79u1lzy5TdvVLoYCPYWu76/plG2tO7k0mfADHtgyoNXW1fA5SjrY/fXGR6YXvOrw0ABgwY5DrJ77HP2M64busFT7pD58Pc/2KcuzqG5jcy4UJoS9i/sjxFf0ZZyrhP/3005+/wy/9wkZNoDC44qyxz1rbutfTVxeZcoyv12thwIxByk/6PMf4Bsb4wA2KEjFT+GOQ6yeU4xjfyBh/jfC3xHpSqfn8a21m3ebCdGN8odTBWwQEg6yekO1ybarneOiHy0zX1ReHlzqbwTEX2p+yjdjg13XPmHZyT+PO8JfO+JM5QGzoXqFlphN+zg91fMmhhlb1kPXQF2VMJ/zWM7axgGKwhdnKNqF63eN6nz28y0zb1aez5yQ3oehyuddYYjrhy+RNqbMZHPtyhL1xT47xz5hO+D7HukFGkfdPiY9yy1L450wnfB8U/ni0FD79fZkphQ9Ht3J2rB7LAXfUZ8u9ry4n23yPfw6Fn6BVPSG2rt8qPrviGLv6Z0w7uadxgyAUFIRYYUrhu6/yKPy5SfmOvr3MtF19wHf5/RITY6lQ3fKpfTKp8AU6/DhSto+dX+u30PU4zsm9M0yM8cGaYFobiGs5+v49sdaPnNw7w6zwfQEUCqpYsNWeI3WU+A3QB36m7OrL2L40IGqChIF1PLl+Zjf/nKkn9yhKm/gmdXGM3fxzphS+L7PPPsM/U5Jb+1l817MRuIgZ4buOL0kEDJr2xGwaOkc/tGPqrn4MXxkGXN/U+IG+88MxvuKIIBkxMHt7Zvd59L7u2XGMf86UwhcH7zGuH1G4e7CnXWLCF3CMwj/H7Bif2IL+v8iUwgdwtHY2HZ9HD3Zq+Qy6Lrb455gRvsteAb7XfSzgs2XKvnIea36B5xwzXX2XmiAix5LrM9+x2b/HUQrH+BkwIYwF/ZVm6q6+hsHQF3v5g373M63wpWsXcnyrgGBg9Y34B2tO7p0zpfC1g0NjO59ga0RM4bcnZNMcW8eu5eTeOVMK3/ePM3NYE3CkHSX2dsvSV3lM29UXdCDUBgWDqZy9bBa7D/0WZvrJPe38IwIhdU8G53boGOD4/iLTCv+pp55atsJQdMewt90xz8Px/UWmFX7OON8XgEwGaY6yUY6/6L88pu/qa3KCojRwGGhtidkzx6f8hl4epsb4a4IiFpCkHS3trOu6devWskXAtMKXyZyY2EuCjMIfA+0n8T2OcYx/kWmFn+Nodgvnw5egmbQvM63wQY3DGSR9EvJLrr/4Ou8i0wtfB0ZOkOQGEgmTsmGNjUPXxOqSc1izq3+RqYUPdGDEgiRFToD5WHPPWdnLXlIXh3SXmX5yrxUziHuE51z7jKP44mimFT6+wJMKgh6ChIFaj892tGceU3f13S6eGxQMkrFJ+U+f53v8i5jo6ksAUOjjUuM77ffan2rPytRdfaFkcofJoU/W+IU+vczUXf0UDIj+oMD3YWrhSyCEAoKBcgxb2V3Xq7c5vr/M1MKX3+SHAsJH6HzsutpzubSoY0/2et4cu2PN8f1lpha+z+GpoNwraEkZPr/k+Ipf3vFjoqtPCLmIOeG7x5gc5iHky5w/w2aNqYUvkzo6IFJf6gnBBLEPJXZ2y2rfyjmsOca/jIkxfotx3pbC37Lu0SixRays+Jy29TO18GspDRYGVxk19sq5hn7IZ3rhp4LBd740gBhw25Nj41AZvse/jAnhx4KGr3vmRHyONcf4lzE3uRdLAltxxD2PZK/PG7uPnGNi9zO18O/evXspOHKCMlQm51oLbGWH0nrpj3qm7+rXZHwK/xjW2j1UjmP8y5jo6gMJCjc4coOKHEeN8LW/Oca/zPRdfSH0Xjc3qGK0qMMKe9lK7kPf+Jm+q0/mhIJex/TCbxkgDLZ+cH0R8g2/p+/HzOReC9HW1pG6rsWzzcAaO+hrZRtrPdwj50wv/NS7fL0t+I6R7QnZvdQfUp7v8MNML3xfxteBRJFfpIU9WtuUPmoPx/iNYHDuC+29jumFf/PmzWVrWxiIebSyk1tPqF5O7vkx09XXgZEKmlAQkfVsZVs9npd7YM0v7/iZXviCDgx30ofCz2cE27R8kzMrJoTfKgAYSNsSsq/veK4v2NX3Q+GTIXF9GkoOfI/vZ3rh+/6pBpkP7V/Z5nv8MNML/5lnnjmtfYEh+JKC71gtLesiaWjvNCa7+u6+r2XwBU8soBhsZ6TsUGOnNbblGN+Pia5+qy7fVuJm0jgjZAff8VybcYzvx0xXH1BgfVPiH7es3pdt+juMia6+wPe780Lhl2FK+IIbEL4AYdCMD8f3YUxO7rlQ+P2yxg8c34cxIfwbN26c1i3EHKojVjeTSD0+27nH9L5s0+ZxTAjf9y6/llAdDLR1lNjPLav3ZZtf3oljtqvvCxayPSFb0wf7YkL4vt/kjyb8Xp5xJIHu9bcYRsSE8DnJsx89JSj6PYwJ4Qs6KFMBOlLLNjM+P7jHfH6l/+KYET4CQU/41E7+bBFQDNIwPtu4x0J+ZVc/jCnhx8gVH0W6DVvYVX9dm1zEhPBzfpPvnisNRCaEdbS2H/0Rx4Twa97jMxDb08oGbj16X7b5Hj8Ou/pkOHKET+KYEb7bAsSCh/TDGr9wci+MqTG+xg0odg3b0EsCxXNwci+MqTE+WBuYvQQ28SP+oZ/imOnqC9Ky5wRGafAw2OopsZ1bVu/LNrv5ccxO7uUEWk4ZTWl5ksZn0xxfspsfx4zwr1+/flpTnMdRY/u9rrGGGeHfu3fvtA4FRW6w1AZV6joLwbr1Z5T6OVGbxmxX38V3PvcYOQ7tD/omHzPClz+/pUkFCgNpP3Jt7ZYLXefzNznHjPB9kz0Udj/UCj8EJ/fimBG+EAqcFkmAiaQttfakH9KYE35o4ofB0oaWdiytS8pjzff4cUwJ3w2k2iCtvc46W9hN16mTOrv6ccwIHy2AG3i1r30o/OPI8SH9k8aM8FPv8X0wgPahlU/kHN/jpzHX1c8JnC3Ysu7RCdmm1Ga0cT6mhJ9qCdYGDgOvLTn2DJXh5F4cU2N8l9ZCXVPfKEnj6Od07x96Hk7uxTE3xtekgjh0/ujg34oRPlfOM87qn5aY6uoLuYLOLUfOONoucn/6J425yT0QGutzNnhbthak1M/v6acxJXz5Tb7AlqEPQn7I8Y9bBvu+YR25iCnhu+/ycwKLbM8aP7jXsteWB8f4CVolByaZNoTsSPuWYXKMH8J3viSgGHzbE7KxPs4xfhrTY3yXXOFS4H0Q8gPf4acxOcbXUMT9kvKN7zz9mYf5MT4DZR9idg6dc4/n+Apl2NVPY074CIySmd+cYNuDXp7jSGI20Of4Oi+NKeGjJXCDR+/7Aiv32Fq2qLM1qWc88jNIMh/Bjj1gSvj3799fts7RrX9u0MTKMfD2w2drvsfPw/wYvzVMCm3IsVVN0iZnmBzjM0j6wuePUh/p8pzcS2NujM+u4DHEhJwr8txynNxLY36M71La0pA8WtjVrcNXJ/2Xh8kxPpAASQVTKJAYYMfj8wH9kofJMT5Y+/qHAdYX4g+O7/MwJ/xr164tW9tgOSG0/Oy+umL1yzmO7/MwJ3x3nO8GU2qftCVkX9/xlC/oq3w4xneCxZ31bxlMDMzLrLFJynckjNkxfm8iZFIox+fL1E+vyRkc41dCoZaxpb103Rzj52F+jF+LReHv+Zl997Jo860wO8bX6IBaG1wMzu1I+Ym2z8ek8BEgoSBaG1AlZUk9IT9xjJ+HWeGXzABTzNvRwra6jlZDudkxJ3x+s6svcoUfK7f2W5gW4eTeA3TAMHjqaWk7t66cuvkePx+O8R+gA8YXYLnHUtRcMwulnz1VXp/X2xzj52FO+AgMCL0kEEuDlmxPKFlzjJ+HOeE/++yzyxaZDSbofEx29bdkTfBZDNyWn5nCz8e08CVQ3IDJCSAG2Xb4bJvjI47v8zEpfPm+fug1UI6oc8qQOny2jflItjm+z8ek8PlDjrmA8H3JgoThGD8DBtU69rAf3+GXYVL4EojuWtgqUPcQwFFs/dlyfLT1n1WbCdNjfAkeN4jWth5bi2Amcm3llvP5jmP8fEwKv1WAhII2N5iJ31Yl9qOt6+AYPwMKfF9q7EpflEHhZ8Cg6h/4iO/x8zErfASKFjTF3bcNcnzFMX4+JoWPlgHBE/qhx1ECOOq+WxP6XCWfN+Qf2S6pixgVfuqHOr0G0ajBHXru0uM+JHnzPX4Z7Opn4ivbInBJO/gePx+zXX20EFqgKbGWCD/GrEnhqM+l78ufXOfDrv5CaLxPjsf1h96nr+ow29WPwWDqC9cfvvE8fVYGhU+y2UtcNfe5evXqskVyMD25p9cp2KK0J2TTlK195zm+L8Os8J988snTWrqNNcEWoqSsBUL2qLWTvo62rsOs8J977rll6ww3gHICKlSGwdiWmD1xjvYuh2P8AAymfkj5gl/eKces8GUyaG+BM6HEqbUPv7xThlnhyw86JNB6EOTISaHVs+fU4/MZf6BTBrv6C27AtQpkEibXxiHfuGuSD4UfwB03+oKLAbcPKTvjPLv6ZZgWPgJmjXgp/Dz2sBPf45dhVvhoIRCQW3xHnwmB9I5Z4bvv8UFMsBTzPqTsrM/LNn1TDsf4mVgPrr0+v+8++pjelt4a3+OXY76rHwro0HHSjlwb55Tj5F4Zprv6aCl0UIW2Y+SWE0rLz8xaW+jrOblXBrv6ipouI4V8xhF2kHvSB+VQ+BvBYDyj1A6p8r7z/C1+OaaFHwsy37mSIC4pK9RcMzuuTXy9MnbzyzEtfPlNfq7IKcz9oc23wbTw5V2+tCI1QcbArKPWbvo6bNP+dXCMr6gJIgZeHbV209dhm+/w6zAt/NLf5FPk21NjY07ulWNa+O5v8l3c4y2Ez+QRp8bmnNwrh119RUuhU+BnrLVD6Hradx0UvoLBVEfMbq1tKvXpNbv65ZgXfuvAnJWtBFyKex32fb+0JHHMT+4hcEJBmBOcOWXIZXx2yz1G1mNa+M8///xpHXolxFdF+1IjfCaGOjjGd4gF0h5BxkAOo20j20zOdXCM7witlfAo4PZom2rBc3KvHPNjfATQFiKN1WkpKezxWTm5Vw7H+A8IBWdO0O4p4pkSRu5nWeMbEoZjfAcdUG5w+YKNAdiOEvvKcY7x66DwHWKBRJFvS8q+vvOPP/74skVKMC/82G/yR+Ooz7DXfX1J+cUXX1y2SAnmhS8/8PAF1QzJgBAf7OpHoPCPJWZ/nKN/6mFXf+nqC6lg8p3PPdYzez9vzv3cMnof2+iluf4jebCrv3T1JahSAek7n7rGpbT8yIQ+a40dfef5Dr8OdvUXehFjL89B5obCT0Ah9of4BGt29eug8B1coVP4xxGyvRa+fPuSlGFe+PKbfCEldN/51DWz0+rzu/Wk9kk95oWPFgMBlRtUvnKhaxmofmrtRXu2g139hS2+881A9dPKLrRvPRT+A9wA0vsMrnrW2i50vRzne/x6zAsfgeO29jrgtugJkDxCwtc+4eReHeaF/8ILLyxb+7G2JbQIE3Bb2NVfYGAdC+2/LxS+h1iL7DvHFnxfJEnwt/j1UPgPcCeIWrU+MyWElp+llX05vq+Hwn+A+0Mdzd5dUPYe/NAubaHwFRxn1rGVKLU/XN8wEayDwi+EySGfLW2FuvkOvx4K/wFPPPHEskWOoiRJSFn+Fr8eCv8BbgDpIMwJyJKgBda7qeymHw+FrygVMNkO1xf0TVso/A1hsG4Lx/j1UPgPYACNgyRTrPkevx4K/wH4vr5unVMtNVvyPErG8hz37wuFrwgFH4Ue5ijBMlGsg8JXrBE4k0NbXHv69vkath4K/wEY4/fSglhoydYkSW2fI35SPQsU/gPcMb6LK8Y1gTsiPSUja7bfCgp/Aa2+DqrQdgkxwVho2beE3fx1UPgLr7zyyrJFjiCWXH3n2M1fB4W/sDaQansFpVjpKYTsKcdv3LhxWpM6KPyFxx57bNk6g13x9Wxpw+9///vLFqmBwl/48pe/fFpLsO7VglujhV3hI47x10HhL+AXek899VRWYLI3sC+uvdE74xh/HRS+4rvf/e6ydRG2/mFaJMGUfd3zX//615ctUguFr0CL3xomjTpCdsPxUIIm+VD4iu9973u7/clmDhfqgH/4Z7XXQ+E7fPGLXzytS1vqlkJmUgjz1a9+lX9yqwEUvsNXvvKVZescNwmw+54mlLxqbKev+dGPfrRskTVQ+A7f+c53+OWQnclNrNeuXWNr3wgK38Nrr722bBHQy9DjJz/5ybJF1kLhe0Crj9alBRyvtwG9sG9961vLHlkLhR+gtNW3Ou7fI7HhCzuvvvrqskdaQOEHQKt//fr1ZS9/HEra86UvfYmtfWMo/Ag//OEPL4ifrMfXQ4j1GtDa8wc57aHwI3zzm988iX8Lehv7t36eNT0ifS3e29+/f3/ZI62g8BNA/Gj1exOqBW7dunXl5z//+bJHWkLhZ4BW/+rVq8se2QO8VfnFL36x7JHWUPgZoNX/wQ9+cOEVn68r22rCz3rvQsb19+7dW46Q1lD4meCnoPhVmPuXelJw9r8M2Bd/FAXJlmwHhV8AxI8/ylkqfnJOrKcEu8K+P/vZz077ZDso/EJ++tOfnoLzoYceWo6QFojo+XXpfaDwK4D4b9++feXRRx9djtglNB9RMk9B0e8PhV8JgvTll1++IP6S8TxfD54B+1H0+0PhV3L37t0rP/7xj0/i5//XrwN2wx8+oej3h8JfCcT/7W9/Oyh+tux+YC98/55/WOMYKPwG4GulED9+OspxfxgZCslPbH1/7Yjsw0MPWiQ2SY3417/+deWPf/zjlTfeeOPKhx9+uBw9+wORPkJJ4uGHHz4tPvA2IfZGIXYu5urY/ATOha799NNPl62L4Lh7DeyAiTx8GerOnTvLUXIEFP4GQPyvv/76lY8++ugkAAr/7L/bfuMb3zhN5JHjofA3Qrf+IVHNLPxPPvnktIbgMZ6H4Cn6fqDwNwbi/9Of/nRq/T/77LPl6Bkh4UO8jzzyyLJ3kVGEj8QFweOPaMj/JST9QOHvwDvvvHPlz3/+85W33nrrQgKAuH1CHUX4OOYmM7TweHYKvm8o/B1xEwCYRfgQPBZ8rwG/o3/66adPx0mfUPgHIAng/fffP4nKHQaMJHwMVzB5iRYeoidjQOEfzLvvvnvlL3/5y5W33377tI8kAKH1Knw8l15eeuklCn5AKPxOQAIAOgmgF+COoY8QPoDI0ZXHfxRGVx5rdufHhcLvECQBDAc++OCDK++9997n4v/4449P65jL1gpfWnK9jW/aQezyD0XJ+FD4AwDxg7/+9a8nYWNuQPcEdM9AC9/tLcDVWtQCjuP1G46hJccCpGUn80HhD4okA4BtJAMXXUYQId+8efO0BkgQ+PsCFLkdKHxCDMJf5xFiEAqfEINQ+IQYhMInxCAUPiEGofAJMQiFT4hBKHxCDELhE2IQCp8Qg1D4hBiEwifEIBQ+IQah8Akxx5Ur/x83NT8WZd4cgwAAAABJRU5ErkJggg==;" vertex="1" parent="1">
          <mxGeometry x="70" width="254" height="627" as="geometry" />
        </mxCell>
        <mxCell id="G1dxcjwJxrKEeyY8NWex-3" value="" style="endArrow=none;html=1;rounded=0;strokeWidth=3;fillColor=#1ba1e2;strokeColor=#006EAF;exitX=0.5;exitY=1;exitDx=0;exitDy=0;" edge="1" parent="1" source="G1dxcjwJxrKEeyY8NWex-1">
          <mxGeometry width="50" height="50" relative="1" as="geometry">
            <mxPoint x="200" y="380" as="sourcePoint" />
            <mxPoint x="350" y="530" as="targetPoint" />
          </mxGeometry>
        </mxCell>
        <mxCell id="G1dxcjwJxrKEeyY8NWex-4" value="" style="endArrow=none;html=1;rounded=0;strokeWidth=3;fillColor=#1ba1e2;strokeColor=#006EAF;" edge="1" parent="1">
          <mxGeometry width="50" height="50" relative="1" as="geometry">
            <mxPoint x="350" y="530" as="sourcePoint" />
            <mxPoint x="510" y="530" as="targetPoint" />
          </mxGeometry>
        </mxCell>
        <mxCell id="G1dxcjwJxrKEeyY8NWex-5" value="&lt;span style=&quot;font-size: 21px;&quot;&gt;Power &amp;amp; Comm&lt;/span&gt;" style="text;html=1;align=center;verticalAlign=middle;resizable=0;points=[];autosize=1;strokeColor=none;fillColor=none;" vertex="1" parent="1">
          <mxGeometry x="355" y="493" width="170" height="40" as="geometry" />
        </mxCell>
        <mxCell id="G1dxcjwJxrKEeyY8NWex-6" value="" style="endArrow=none;html=1;rounded=0;strokeWidth=3;fillColor=#1ba1e2;strokeColor=#006EAF;" edge="1" parent="1">
          <mxGeometry width="50" height="50" relative="1" as="geometry">
            <mxPoint x="190" y="62" as="sourcePoint" />
            <mxPoint x="340" y="212" as="targetPoint" />
          </mxGeometry>
        </mxCell>
        <mxCell id="G1dxcjwJxrKEeyY8NWex-7" value="" style="endArrow=none;html=1;rounded=0;strokeWidth=3;fillColor=#1ba1e2;strokeColor=#006EAF;" edge="1" parent="1">
          <mxGeometry width="50" height="50" relative="1" as="geometry">
            <mxPoint x="340" y="212" as="sourcePoint" />
            <mxPoint x="500" y="212" as="targetPoint" />
          </mxGeometry>
        </mxCell>
        <mxCell id="G1dxcjwJxrKEeyY8NWex-8" value="&lt;font style=&quot;font-size: 21px;&quot;&gt;Sensor&lt;/font&gt;" style="text;html=1;align=center;verticalAlign=middle;resizable=0;points=[];autosize=1;strokeColor=none;fillColor=none;" vertex="1" parent="1">
          <mxGeometry x="385" y="175" width="90" height="40" as="geometry" />
        </mxCell>
      </root>
    </mxGraphModel>
  </diagram>
</mxfile>
